<mxfile host="app.diagrams.net" modified="2022-05-27T13:14:58.600Z" agent="5.0 (Windows NT 10.0; Win64; x64) AppleWebKit/537.36 (KHTML, like Gecko) Chrome/101.0.4951.67 Safari/537.36" etag="O-lC2DHj5sXQ3LM6MJ8z" version="18.1.2" type="github">
  <diagram name="Page-1" id="e7e014a7-5840-1c2e-5031-d8a46d1fe8dd">
    <mxGraphModel dx="1038" dy="559" grid="1" gridSize="10" guides="1" tooltips="1" connect="1" arrows="1" fold="1" page="1" pageScale="1" pageWidth="1169" pageHeight="826" background="none" math="0" shadow="0">
      <root>
        <mxCell id="0" />
        <mxCell id="1" parent="0" />
        <mxCell id="2" value="Actors" style="swimlane;whiteSpace=wrap" parent="1" vertex="1">
          <mxGeometry x="164.5" y="128" width="280" height="570" as="geometry" />
        </mxCell>
        <mxCell id="_E00CUS9A5F1LI4BarWO-45" value="Admin&lt;br&gt;" style="shape=umlActor;verticalLabelPosition=bottom;verticalAlign=top;html=1;outlineConnect=0;" parent="2" vertex="1">
          <mxGeometry x="125.5" y="62" width="30" height="58" as="geometry" />
        </mxCell>
        <mxCell id="3" value="Actions" style="swimlane;whiteSpace=wrap" parent="1" vertex="1">
          <mxGeometry x="445" y="128" width="280" height="570" as="geometry" />
        </mxCell>
        <mxCell id="_E00CUS9A5F1LI4BarWO-41" value="Book Read" style="rounded=0;whiteSpace=wrap;html=1;" parent="3" vertex="1">
          <mxGeometry x="80.5" y="72" width="109.5" height="28" as="geometry" />
        </mxCell>
        <mxCell id="_E00CUS9A5F1LI4BarWO-44" value="Notification sent" style="rounded=0;whiteSpace=wrap;html=1;" parent="3" vertex="1">
          <mxGeometry x="80.5" y="332" width="109.5" height="28" as="geometry" />
        </mxCell>
        <mxCell id="_E00CUS9A5F1LI4BarWO-43" value="Customer CRUD" style="rounded=0;whiteSpace=wrap;html=1;" parent="3" vertex="1">
          <mxGeometry x="80.5" y="182" width="109.5" height="28" as="geometry" />
        </mxCell>
        <mxCell id="_E00CUS9A5F1LI4BarWO-42" value="Book Write/update/Delete" style="rounded=0;whiteSpace=wrap;html=1;" parent="3" vertex="1">
          <mxGeometry x="55.25" y="122" width="169.5" height="28" as="geometry" />
        </mxCell>
        <mxCell id="_E00CUS9A5F1LI4BarWO-46" value="Server" style="ellipse;whiteSpace=wrap;html=1;" parent="3" vertex="1">
          <mxGeometry x="80.5" y="432" width="120" height="80" as="geometry" />
        </mxCell>
        <mxCell id="_E00CUS9A5F1LI4BarWO-54" value="Subscription CRUD" style="rounded=0;whiteSpace=wrap;html=1;" parent="3" vertex="1">
          <mxGeometry x="80.5" y="242" width="109.5" height="28" as="geometry" />
        </mxCell>
        <mxCell id="_E00CUS9A5F1LI4BarWO-56" value="Payment API" style="rounded=0;whiteSpace=wrap;html=1;" parent="3" vertex="1">
          <mxGeometry x="80.5" y="282" width="109.5" height="28" as="geometry" />
        </mxCell>
        <mxCell id="4" value="Actors" style="swimlane;whiteSpace=wrap" parent="1" vertex="1">
          <mxGeometry x="724.5" y="128" width="280" height="570" as="geometry" />
        </mxCell>
        <mxCell id="_E00CUS9A5F1LI4BarWO-47" value="Customer&lt;br&gt;" style="shape=umlActor;verticalLabelPosition=bottom;verticalAlign=top;html=1;outlineConnect=0;" parent="4" vertex="1">
          <mxGeometry x="125" y="62" width="35" height="58" as="geometry" />
        </mxCell>
        <mxCell id="_E00CUS9A5F1LI4BarWO-50" value="" style="endArrow=classic;html=1;rounded=0;" parent="1" source="_E00CUS9A5F1LI4BarWO-45" edge="1">
          <mxGeometry width="50" height="50" relative="1" as="geometry">
            <mxPoint x="520" y="430" as="sourcePoint" />
            <mxPoint x="500" y="270" as="targetPoint" />
          </mxGeometry>
        </mxCell>
        <mxCell id="_E00CUS9A5F1LI4BarWO-51" value="" style="endArrow=classic;html=1;rounded=0;" parent="1" edge="1">
          <mxGeometry width="50" height="50" relative="1" as="geometry">
            <mxPoint x="840" y="230" as="sourcePoint" />
            <mxPoint x="640" y="320" as="targetPoint" />
            <Array as="points" />
          </mxGeometry>
        </mxCell>
        <mxCell id="_E00CUS9A5F1LI4BarWO-52" value="" style="endArrow=classic;html=1;rounded=0;exitX=0.5;exitY=0;exitDx=0;exitDy=0;" parent="1" source="_E00CUS9A5F1LI4BarWO-46" edge="1">
          <mxGeometry width="50" height="50" relative="1" as="geometry">
            <mxPoint x="520" y="530" as="sourcePoint" />
            <mxPoint x="580" y="490" as="targetPoint" />
          </mxGeometry>
        </mxCell>
        <mxCell id="_E00CUS9A5F1LI4BarWO-53" value="" style="endArrow=classic;html=1;rounded=0;entryX=1;entryY=0.5;entryDx=0;entryDy=0;" parent="1" target="_E00CUS9A5F1LI4BarWO-41" edge="1">
          <mxGeometry width="50" height="50" relative="1" as="geometry">
            <mxPoint x="840" y="230" as="sourcePoint" />
            <mxPoint x="570" y="380" as="targetPoint" />
          </mxGeometry>
        </mxCell>
        <mxCell id="_E00CUS9A5F1LI4BarWO-55" value="" style="endArrow=classic;html=1;rounded=0;" parent="1" edge="1">
          <mxGeometry width="50" height="50" relative="1" as="geometry">
            <mxPoint x="320" y="220" as="sourcePoint" />
            <mxPoint x="520" y="380" as="targetPoint" />
          </mxGeometry>
        </mxCell>
        <mxCell id="_E00CUS9A5F1LI4BarWO-57" value="" style="endArrow=classic;html=1;rounded=0;entryX=1;entryY=0.5;entryDx=0;entryDy=0;" parent="1" target="_E00CUS9A5F1LI4BarWO-56" edge="1">
          <mxGeometry width="50" height="50" relative="1" as="geometry">
            <mxPoint x="840" y="230" as="sourcePoint" />
            <mxPoint x="650" y="330" as="targetPoint" />
            <Array as="points" />
          </mxGeometry>
        </mxCell>
      </root>
    </mxGraphModel>
  </diagram>
</mxfile>
